<svg xmlns="http://www.w3.org/2000/svg" xmlns:xlink="http://www.w3.org/1999/xlink" viewBox="0 0 375 168"><defs><style>.a,.b{fill:#fff;}.a{stroke:#707070;}.c{clip-path:url(#a);}.d{fill:#f25f39;}.e{opacity:0.227;clip-path:url(#b);}</style><clipPath id="a"><rect class="a" width="375" height="168"/></clipPath><clipPath id="b"><path class="b" d="M376.5,0h-.439L360.813,15.248,345.564,0h-.879L329.438,15.248,314.189,0h-.878L298.063,15.248,282.814,0h-.879L266.688,15.248,251.439,0h-.878L235.313,15.248,220.064,0h-.879L203.938,15.248,188.689,0h-.878L172.563,15.248,157.314,0h-.878L141.188,15.248,125.939,0h-.878L109.813,15.248,94.564,0h-.879L78.438,15.248,63.189,0h-.879L47.063,15.248,31.814,0h-.879L15.688,15.248.439,0H0V.439L15.248,15.688,0,30.936V63.189L15.248,78.438,0,93.686v32.254l15.248,15.248L0,156.436v32.254l15.248,15.248L0,219.186v32.254l15.248,15.248L0,281.936v32.254l15.248,15.248L0,344.686V376.5H.439l-.125-.126v-30.5l14.934,14.935L30.936,376.5h.879L47.5,360.813l14.935-14.935v30.5l-.125.126h.879l-.125-.126v-30.5L78,360.813,93.686,376.5h.879l15.688-15.687,14.935-14.935v30.5l-.126.126h.878l-.125-.126v-30.5l14.935,14.935L156.436,376.5h.878L173,360.813l14.934-14.935v30.5l-.126.126h.878l-.126-.126v-30.5L203.5,360.813,219.186,376.5h.878l15.688-15.687,14.934-14.935v30.5l-.126.126h.878l-.126-.126v-30.5l14.935,14.935L281.936,376.5h.878L298.5,360.813l14.935-14.935v30.5l-.126.126h.879l-.126-.126v-30.5L329,360.813,344.686,376.5h.879l15.688-15.687,14.935-14.935v30.5l-.126.126h.439V344.686l-15.248-15.248L376.5,314.189V281.936l-15.248-15.248L376.5,251.439V219.186l-15.248-15.248L376.5,188.689V156.436l-15.248-15.248L376.5,125.939V93.686L361.252,78.438,376.5,63.189V30.936L361.252,15.688,376.5.439ZM329.438,266.248l-15.374-15.374v-30.5L329,235.312,344.686,251Zm15.374-14.5v30.5l-15.374,15.374-15.248-15.248,15.688-15.688Zm-313-.753L47.5,235.313l14.935-14.935v30.5L47.063,266.248Zm30.5,31.375L47.063,297.623,31.689,282.25v-30.5l14.935,14.935Zm220.5-94.125L298.5,172.563l14.934-14.935v30.5L298.063,203.5Zm30.5,31.375-15.248,15.248L282.689,219.5V189l14.935,14.934Zm.125-94.25-15.374,15.374L282.814,125.5,298.5,109.813l14.934-14.935Zm.314.565L329,141.188,313.75,156.436,298.5,141.188Zm-16.127,15.248,15.688,15.688-15.248,15.248-15.374-15.374v-30.5Zm0,31.375-15.248,15.248-15.248-15.248,15.248-15.248Zm-30.5,31.375L282.061,189v30.5l-15.374,15.374-15.248-15.248Zm-.439-.439-15.374-15.374v-30.5l14.935,14.934,15.688,15.688Zm15.374-46.749-15.374,15.374-15.248-15.248,15.687-15.687,14.935-14.935Zm-15.374-16-15.374-15.374v-30.5l14.935,14.935L281.936,125.5Zm-.439.439L251,156.436l-15.248-15.248L251,125.939ZM220.064,188.25l15.687-15.687,14.934-14.935v30.5L235.313,203.5Zm30.5,31.375-15.248,15.248L219.939,219.5V189l14.934,14.934Zm.126-94.25-15.374,15.374L220.064,125.5l15.687-15.688,14.934-14.935Zm-15.813,15.813,15.688,15.688-15.248,15.248-15.374-15.374v-30.5Zm0,31.375-15.248,15.248-15.248-15.248,15.248-15.248Zm-30.5,31.375L219.311,189v30.5l-15.374,15.374-15.248-15.248Zm-.439-.439-15.374-15.374v-30.5L203.5,172.562l15.688,15.688Zm15.374-46.749-15.374,15.374-15.248-15.248,15.688-15.687,14.934-14.935Zm-15.374-16-15.374-15.374v-30.5L203.5,109.813,219.186,125.5Zm-.439.439L188.25,156.436,173,141.188l15.248-15.248ZM157.314,188.25,173,172.563l14.934-14.935v30.5L172.563,203.5Zm30.5,31.375-15.248,15.248L157.189,219.5V189l14.934,14.934Zm.126-94.25-15.374,15.374L157.314,125.5,173,109.813l14.934-14.935Zm-15.813,15.813,15.688,15.688-15.248,15.248-15.374-15.374v-30.5Zm0,31.375-15.248,15.248-15.248-15.248,15.248-15.248Zm-30.5,31.375L156.561,189v30.5l-15.374,15.374-15.248-15.248Zm-.439-.439-15.374-15.374v-30.5l14.935,14.934,15.688,15.688Zm15.374-46.749-15.374,15.374-15.248-15.248,15.688-15.687,14.934-14.935Zm-15.374-16-15.374-15.374v-30.5l14.935,14.935L156.436,125.5Zm-.439.439L125.5,156.436l-15.248-15.248L125.5,125.939ZM94.564,188.25l15.688-15.687,14.935-14.935v30.5L109.813,203.5Zm30.5,31.375-15.248,15.248L94.439,219.5V189l14.935,14.934Zm.126-94.25-15.374,15.374L94.564,125.5l15.688-15.688,14.935-14.935Zm-15.813,15.813,15.688,15.688-15.248,15.248L94.439,156.749v-30.5Zm0,31.375L94.125,187.811,78.877,172.563l15.248-15.248Zm-30.5,31.375L93.811,189v30.5L78.438,234.873,63.189,219.625Zm-.439-.439L63.064,188.124v-30.5L78,172.562,93.686,188.25Zm15.374-46.749L78.438,172.123,63.189,156.875l15.687-15.687,14.935-14.935Zm-15.374-16L63.064,125.375v-30.5L78,109.813,93.686,125.5Zm-.439.439L62.75,156.436,47.5,141.188,62.75,125.939ZM62.436,125.375,47.063,140.748,31.814,125.5,47.5,109.813,62.436,94.878ZM46.623,141.188l15.687,15.688L47.063,172.123,31.689,156.749v-30.5Zm.878,31.375,14.935-14.935v30.5L47.063,203.5,31.814,188.25Zm-.878,31.375,15.687,15.688L47.063,234.873,31.689,219.5V189Zm.878,0L62.75,188.689,78,203.938,62.75,219.186Zm15.562,16.441L78,235.313,93.686,251,78.438,266.248,63.064,250.875Zm15.813,46.309,14.935-14.934v30.5L78.438,297.623,63.189,282.375Zm0-31.375,15.248-15.248,15.248,15.248L94.125,250.561Zm15.562,16.441,14.935,14.934,15.688,15.688-15.248,15.248L94.439,282.25Zm.126-.753,15.688-15.687,14.935-14.935v30.5l-15.374,15.374Zm15.688-47.063L125.5,188.689l15.248,15.248L125.5,219.186Zm15.562,16.441,14.935,14.935L156.436,251l-15.248,15.248-15.374-15.374Zm15.813,46.309,14.934-14.934v30.5l-15.374,15.374-15.248-15.248Zm0-31.375,15.248-15.248,15.248,15.248-15.248,15.248Zm15.562,16.441,14.934,14.934,15.688,15.688-15.248,15.248L157.189,282.25Zm.126-.753L173,235.313l14.934-14.935v30.5l-15.374,15.374ZM173,203.938l15.248-15.248L203.5,203.938,188.25,219.186Zm15.562,16.441L203.5,235.313,219.186,251l-15.248,15.248-15.374-15.374Zm15.813,46.309,14.934-14.934v30.5l-15.374,15.374-15.248-15.248Zm0-31.375,15.248-15.248,15.248,15.248-15.248,15.248Zm15.562,16.441,14.934,14.934,15.688,15.688-15.248,15.248L219.939,282.25Zm.126-.753,15.687-15.687,14.934-14.935v30.5l-15.374,15.374Zm15.687-47.063L251,188.689l15.248,15.248L251,219.186Zm15.562,16.441,14.935,14.935L281.936,251l-15.248,15.248-15.374-15.374Zm15.813,46.309,14.935-14.934v30.5l-15.374,15.374-15.248-15.248Zm0-31.375,15.248-15.248,15.248,15.248-15.248,15.248Zm15.562,16.441,14.935,14.934,15.688,15.688-15.248,15.248L282.689,282.25Zm.126-.753L298.5,235.313l14.934-14.935v30.5l-15.374,15.374ZM298.5,203.938l15.248-15.248L329,203.938,313.75,219.186Zm15.688,15.688,15.688-15.687L344.811,189v30.5l-15.374,15.374ZM329.438,203.5l-15.374-15.374v-30.5L329,172.562l15.688,15.688Zm-15.248-46.623,15.688-15.687,14.934-14.935v30.5l-15.374,15.374Zm15.248-16.127-15.374-15.374v-30.5L329,109.813,344.686,125.5ZM314.189,94.125l15.688-15.687L344.811,63.5V94l-15.374,15.374ZM329.438,78,314.064,62.625v-30.5L329,47.063,344.686,62.75Zm-.439.439L313.75,93.686,298.5,78.438,313.75,63.189ZM313.436,62.625,298.063,78,282.814,62.75,298.5,47.063l14.934-14.935ZM297.623,78.438l15.688,15.687-15.248,15.248L282.689,94V63.5Zm0,31.375-15.248,15.248-15.248-15.248,15.248-15.248ZM282.061,94l-15.374,15.374L251.439,94.125l15.687-15.687L282.061,63.5ZM266.688,78,251.314,62.625v-30.5l14.935,14.934L281.936,62.75Zm-.439.439L251,93.686,235.752,78.438,251,63.189ZM250.686,62.625,235.313,78,220.064,62.75l15.687-15.688,14.934-14.935ZM234.873,78.438l15.688,15.687-15.248,15.248L219.939,94V63.5Zm0,31.375-15.248,15.248-15.248-15.248,15.248-15.248ZM219.311,94l-15.374,15.374L188.689,94.125l15.688-15.687L219.311,63.5ZM203.938,78,188.564,62.625v-30.5L203.5,47.063,219.186,62.75Zm-.439.439L188.25,93.686,173,78.438,188.25,63.189ZM187.936,62.625,172.563,78,157.314,62.75,173,47.063l14.934-14.935ZM172.123,78.438l15.688,15.687-15.248,15.248L157.189,94V63.5Zm0,31.375-15.248,15.248-15.248-15.248,15.248-15.248ZM156.561,94l-15.374,15.374L125.939,94.125l15.688-15.687L156.561,63.5ZM141.188,78,125.814,62.625v-30.5l14.935,14.934L156.436,62.75Zm-.439.439L125.5,93.686,110.252,78.438,125.5,63.189ZM125.186,62.625,109.813,78,94.564,62.75l15.688-15.688,14.935-14.935ZM109.373,78.438l15.688,15.687-15.248,15.248L94.439,94V63.5Zm0,31.375L94.125,125.061,78.877,109.813,94.125,94.564ZM93.811,94,78.438,109.373,63.189,94.125,78.877,78.438,93.811,63.5ZM78.438,78,63.064,62.625v-30.5L78,47.063,93.686,62.75ZM78,78.438,62.75,93.686,47.5,78.438,62.75,63.189ZM62.436,62.625,47.063,78,31.814,62.75,47.5,47.063,62.436,32.128ZM46.623,78.438,62.311,94.125,47.063,109.373,31.689,94V63.5Zm0,31.375L31.375,125.061,16.127,109.813,31.375,94.564Zm0,62.75L31.375,187.811,16.127,172.563l15.248-15.248Zm0,62.75L31.375,250.561,16.127,235.313l15.248-15.248Zm0,62.75L31.375,313.311,16.127,298.063l15.248-15.248Zm.878,0,14.935-14.935v30.5L47.063,329,31.814,313.75Zm0-31.375L62.75,251.439,78,266.688,62.75,281.936Zm15.562,16.441L78,298.063,93.686,313.75,78.438,329,63.064,313.624Zm15.813,14.935,15.248-15.248,15.248,15.248L94.125,313.311Zm31.375,0,14.935-14.935v30.5L109.813,329,94.564,313.75Zm0-31.375L125.5,251.439l15.248,15.248L125.5,281.936Zm15.562,16.441,14.935,14.935,15.688,15.688L141.188,329l-15.374-15.374Zm15.813,14.935,15.248-15.248,15.248,15.248-15.248,15.248Zm31.375,0,14.934-14.935v30.5L172.563,329,157.314,313.75Zm0-31.375,15.248-15.248L203.5,266.688,188.25,281.936Zm15.562,16.441L203.5,298.063l15.688,15.688L203.938,329l-15.374-15.374Zm15.813,14.935,15.248-15.248,15.248,15.248-15.248,15.248Zm31.375,0,14.934-14.935v30.5L235.313,329,220.064,313.75Zm0-31.375L251,251.439l15.248,15.248L251,281.936Zm15.562,16.441,14.935,14.935,15.688,15.688L266.688,329l-15.374-15.374Zm15.813,14.935,15.248-15.248,15.248,15.248-15.248,15.248Zm31.375,0,14.934-14.935v30.5L298.063,329,282.814,313.75Zm0-31.375,15.248-15.248L329,266.688,313.75,281.936Zm15.562,16.441L329,298.063l15.688,15.688L329.438,329l-15.374-15.374Zm15.813,14.935,15.248-15.248,15.248,15.248-15.248,15.248Zm0-62.75,15.248-15.248,15.248,15.248-15.248,15.248Zm0-62.75,15.248-15.248,15.248,15.248-15.248,15.248Zm0-62.75,15.248-15.248,15.248,15.248-15.248,15.248Zm0-62.75,15.248-15.248,15.248,15.248L345.125,62.311Zm0-31.375L344.811.753v30.5L329.438,46.623,314.189,31.375ZM313.75.439,329,15.688,313.75,30.936,298.5,15.688ZM282.689.753l14.935,14.935,15.688,15.688L298.063,46.623,282.689,31.25Zm14.935,46.309L282.375,62.311,267.127,47.063l15.248-15.248Zm-30.5-31.375L282.061.753v30.5L266.688,46.623,251.439,31.375ZM251,.439l15.248,15.248L251,30.936,235.752,15.688ZM219.939.753l14.934,14.935,15.688,15.688L235.313,46.623,219.939,31.25Zm14.934,46.309L219.625,62.311,204.377,47.063l15.248-15.248Zm-30.5-31.375L219.311.753v30.5L203.938,46.623,188.689,31.375ZM188.25.439,203.5,15.688,188.25,30.936,173,15.688ZM157.189.753l14.934,14.935,15.688,15.688L172.563,46.623,157.189,31.25Zm14.934,46.309L156.875,62.311,141.627,47.063l15.248-15.248Zm-30.5-31.375L156.561.753v30.5L141.188,46.623,125.939,31.375ZM125.5.439l15.248,15.248L125.5,30.936,110.252,15.688ZM94.439.753l14.935,14.935,15.688,15.688L109.813,46.623,94.439,31.25Zm14.935,46.309L94.125,62.311,78.877,47.063,94.125,31.814Zm-30.5-31.375L93.811.753v30.5L78.438,46.623,63.189,31.375ZM62.75.439,78,15.688,62.75,30.936,47.5,15.688ZM31.689.753,46.623,15.688,62.311,31.375,47.063,46.623,31.689,31.25ZM46.623,47.063,31.375,62.311,16.127,47.063,31.375,31.814Zm-30.5-31.375L31.061.753v30.5L15.688,46.623.439,31.375ZM.314,62.625v-30.5L15.248,47.063,30.936,62.75,15.688,78ZM16.127,78.438,31.061,63.5V94L15.688,109.373.439,94.125ZM.314,125.375v-30.5l14.934,14.934L30.936,125.5,15.688,140.748Zm15.813,15.813,14.934-14.935v30.5L15.688,172.123.439,156.875ZM.314,188.124v-30.5l14.934,14.935L30.936,188.25,15.688,203.5Zm15.813,15.813L31.061,189v30.5L15.688,234.873.439,219.625ZM.314,250.875v-30.5l14.934,14.935L30.936,251,15.688,266.248Zm15.813,15.813,14.934-14.934v30.5L15.688,297.623.439,282.375ZM.314,313.624v-30.5l14.934,14.935L30.936,313.75,15.688,329Zm.125,31.5,15.688-15.687L31.061,314.5V345L15.688,360.373Zm30.936,30.936L16.127,360.813l15.248-15.248,15.248,15.248Zm15.687-15.687L31.689,345V314.5l14.935,14.935,15.687,15.688ZM62.75,344.686,47.5,329.438,62.75,314.189,78,329.438Zm.439.439,15.687-15.687L93.811,314.5V345L78.438,360.373Zm30.936,30.936L78.877,360.813l15.248-15.248,15.248,15.248Zm15.688-15.687L94.439,345V314.5l14.935,14.935,15.688,15.688ZM125.5,344.686l-15.248-15.248L125.5,314.189l15.248,15.248Zm.439.439,15.688-15.687L156.561,314.5V345l-15.374,15.374Zm30.936,30.936-15.248-15.248,15.248-15.248,15.248,15.248Zm15.688-15.687L157.189,345V314.5l14.934,14.935,15.688,15.688Zm15.687-15.687L173,329.438l15.248-15.248L203.5,329.438Zm.439.439,15.688-15.687L219.311,314.5V345l-15.374,15.374Zm30.936,30.936-15.248-15.248,15.248-15.248,15.248,15.248Zm15.688-15.687L219.939,345V314.5l14.934,14.935,15.688,15.688ZM251,344.686l-15.248-15.248L251,314.189l15.248,15.248Zm.439.439,15.687-15.687L282.061,314.5V345l-15.374,15.374Zm30.936,30.936-15.248-15.248,15.248-15.248,15.248,15.248Zm15.688-15.687L282.689,345V314.5l14.935,14.935,15.688,15.688Zm15.688-15.687L298.5,329.438l15.248-15.248L329,329.438Zm.439.439,15.688-15.687L344.811,314.5V345l-15.374,15.374Zm30.936,30.936-15.248-15.248,15.248-15.248,15.248,15.248Zm30.936-30.936-15.248,15.248L345.439,345V314.5l14.935,14.935Zm.125-31.5L360.813,329,345.564,313.75l15.688-15.687,14.934-14.935Zm-.125-31.249-15.248,15.248L345.439,282.25v-30.5l14.935,14.935Zm.125-31.5-15.374,15.374L345.564,251l15.688-15.687,14.934-14.935Zm-.125-31.25-15.248,15.248L345.439,219.5V189l14.935,14.934Zm.125-31.5L360.813,203.5,345.564,188.25l15.688-15.687,14.934-14.935Zm-.125-31.249-15.248,15.248-15.374-15.374v-30.5l14.935,14.935Zm.125-31.5-15.374,15.374L345.564,125.5l15.688-15.688,14.934-14.935Zm-.125-31.25-15.248,15.248L345.439,94V63.5l14.935,14.935Zm.125-31.5L360.813,78,345.564,62.75l15.688-15.688,14.934-14.935Zm-.125-31.25L360.813,46.623,345.439,31.25V.753l14.935,14.935Z" transform="translate(-1256.5 -1278)"/></clipPath></defs><g class="c"><rect class="d" width="375" height="167"/><g class="e" transform="translate(1255 1069)"><rect class="b" width="375" height="167" transform="translate(-1255 -1069)"/></g></g></svg>